<?xml version="1.0" encoding="utf-8"?>
<!-- Generator: Adobe Illustrator 27.2.0, SVG Export Plug-In . SVG Version: 6.00 Build 0)  -->
<svg version="1.1" id="Layer_1" xmlns="http://www.w3.org/2000/svg" xmlns:xlink="http://www.w3.org/1999/xlink" x="0px" y="0px"
	 viewBox="0 0 24 24" style="enable-background:new 0 0 24 24;" xml:space="preserve">
<path d="M2.8,21.8c-0.6,0-1-0.4-1-1v-18c0-0.6,0.4-1,1-1s1,0.4,1,1v18C3.8,21.4,3.4,21.8,2.8,21.8z M15.3,1.9
	c-0.5-0.3-1.1-0.1-1.4,0.4c-0.1,0.2-0.1,0.3-0.1,0.5v18c0,0.6,0.4,1,1,1h6c0.6,0,1-0.4,1-1V6.3c0-0.4-0.2-0.7-0.5-0.9L15.3,1.9z
	 M8.8,1.8c-0.6,0-1,0.4-1,1v18c0,0.6,0.4,1,1,1s1-0.4,1-1v-18C9.8,2.3,9.4,1.8,8.8,1.8z"/>
</svg>
